# Blender v2.79 (sub 0) OBJ File: ''
# www.blender.org
mtllib blcok_1.mtl
o Cube_Cube.001
v -26.158169 0.000053 6.652950
v -4.246665 13.305952 2.208084
v -26.158169 0.000053 -6.652950
v -4.246665 13.305952 -2.208084
v 10.602017 0.000053 6.652950
v -1.935644 13.305952 2.208084
v 10.602017 0.000053 -6.652950
v -1.935644 13.305952 -2.208084
v -26.158169 13.305952 6.652950
v -26.158169 13.305952 -6.652950
v 10.602017 13.305952 -6.652950
v 10.602017 13.305952 6.652950
v -4.246665 13.406369 2.208084
v -4.246665 13.406369 -2.208084
v -1.935644 13.406369 2.208084
v -1.935644 13.406369 -2.208084
v -41.701904 0.000053 -6.652950
v -41.701904 0.000053 6.652950
v -41.701904 13.305952 6.652950
v -41.701904 13.305952 -6.652950
v -26.158169 13.305952 -83.622330
v -26.158169 0.000053 -83.622330
v -41.701904 13.305952 -83.622330
v -41.701904 0.000053 -83.622330
vn 0.0000 -1.0000 0.0000
vn 0.0000 0.0000 1.0000
vn -1.0000 0.0000 0.0000
vn 0.0000 0.0000 -1.0000
vn 0.0000 1.0000 0.0000
vn 1.0000 0.0000 0.0000
usemtl None
s off
f 10//1 9//1 19//1 20//1
f 3//2 7//2 11//2 10//2
f 7//3 5//3 12//3 11//3
f 5//4 1//4 9//4 12//4
f 3//5 1//5 5//5 7//5
f 2//1 9//1 10//1 4//1
f 4//1 10//1 11//1 8//1
f 8//1 11//1 12//1 6//1
f 6//1 12//1 9//1 2//1
f 8//3 6//3 15//3 16//3
f 2//6 4//6 14//6 13//6
f 6//4 2//4 13//4 15//4
f 4//2 8//2 16//2 14//2
f 18//6 17//6 20//6 19//6
f 1//5 3//5 17//5 18//5
f 10//1 20//1 23//1 21//1
f 9//4 1//4 18//4 19//4
f 22//2 21//2 23//2 24//2
f 20//6 17//6 24//6 23//6
f 3//3 10//3 21//3 22//3
f 17//5 3//5 22//5 24//5
