# Blender v2.80 (sub 54) OBJ File: 'corridor_2.8.blend'
# www.blender.org
mtllib b_1_2.mtl
o Plane
v -2.003959 0.000420 0.615531
v 1.491990 -0.000420 0.618826
v -0.980020 0.000420 -1.853184
v 1.491990 -0.000420 0.618826
v -2.003960 13.003142 0.615531
v -0.980021 13.003142 -1.853184
v 1.491990 13.003142 0.618826
v 1.491990 13.003142 0.618826
vt 0.000000 0.000000
vt 1.000000 0.000000
vt 1.000000 1.000000
vt 0.000000 1.000000
vt 0.000000 1.000000
vt 0.000000 0.000000
vt 0.000000 1.000000
vt 0.000000 0.000000
vn 0.0002 1.0000 0.0001
vn 0.9237 0.0000 0.3831
vn 0.0000 -1.0000 0.0000
usemtl Material.001
s off
f 1/1/1 2/2/1 4/3/1 3/4/1
f 1/1/2 3/4/2 6/5/2 5/6/2
f 5/6/3 6/5/3 8/7/3 7/8/3
