# Blender v2.80 (sub 54) OBJ File: 'corridor_2.8.blend'
# www.blender.org
mtllib b_1_1.mtl
o block_B.003_Cube.042
v 1.747974 0.000000 1.747975
v -1.747974 0.000000 1.747975
v 1.747974 0.000000 -1.747976
v -1.747974 0.000000 -1.747976
v -1.747975 13.002723 1.747975
v 1.747974 13.002723 -1.747976
v -1.747975 13.002723 -1.747976
v 1.747974 13.002723 1.747976
vn 0.0000 1.0000 0.0000
vn 1.0000 0.0000 0.0000
vn 0.0000 0.0000 1.0000
vn 0.0000 -1.0000 0.0000
usemtl Material.001
s off
f 2//1 1//1 3//1 4//1
f 2//2 4//2 7//2 5//2
f 4//3 3//3 6//3 7//3
f 8//4 5//4 7//4 6//4
