# Blender v2.80 (sub 54) OBJ File: 'corridor_2.8.blend'
# www.blender.org
mtllib b_1_3.mtl
o block_A.008_Cube.000
v 1.747975 11.812698 -33.106979
v 1.747975 -0.000420 0.000000
v -1.747974 11.813538 -33.110271
v 1.747975 24.816259 -33.106979
v 1.747975 13.003141 0.000000
v -1.747975 24.816259 -33.110271
v -1.747975 0.000420 0.000000
v 1.175833 -0.000282 0.000000
v -1.747975 13.003141 0.000000
v -1.175833 0.000282 0.000000
v -1.175833 8.189745 0.000000
v -0.000000 9.401625 0.000000
v -1.110647 8.565584 0.000000
v -0.939558 8.905479 0.000000
v -0.330004 9.346175 0.000000
v -0.669911 9.175109 0.000000
v 1.175833 8.189589 0.000000
v 0.330003 9.346131 0.000000
v 0.669911 9.175020 0.000000
v 1.110647 8.565435 0.000000
v 0.939558 8.905354 0.000000
v 1.175833 -0.000282 10.878502
v -1.175833 0.000282 10.878502
v -1.175833 8.189745 10.878502
v -0.000000 9.401625 10.878502
v -1.110647 8.565584 10.878502
v -0.939558 8.905479 10.878502
v -0.330004 9.346175 10.878502
v -0.669911 9.175109 10.878502
v 1.175833 8.189589 10.878502
v 0.330003 9.346131 10.878502
v 0.669911 9.175020 10.878502
v 1.110647 8.565435 10.878502
v 0.939558 8.905354 10.878502
v 1.424539 -0.000412 10.878502
v -1.424539 0.000198 10.878502
v -1.424540 8.343909 10.878502
v -0.000000 9.656242 10.878502
v -1.345565 8.750902 10.878502
v -1.138289 9.118972 10.878502
v -0.399805 9.596196 10.878502
v -0.811608 9.410951 10.878502
v 1.424539 8.343740 10.878502
v 0.399803 9.596148 10.878502
v 0.811607 9.410853 10.878502
v 1.345565 8.750741 10.878502
v 1.138288 9.118836 10.878502
v 1.424539 -0.000412 10.160919
v -1.424539 0.000198 10.160919
v -1.424540 8.343909 10.160919
v -0.000000 9.656242 10.160919
v -1.345565 8.750902 10.160919
v -1.138289 9.118972 10.160919
v -0.399805 9.596196 10.160919
v -0.811608 9.410951 10.160919
v 1.424539 8.343740 10.160919
v 0.399803 9.596148 10.160919
v 0.811607 9.410853 10.160919
v 1.345565 8.750741 10.160919
v 1.138288 9.118836 10.160919
v -1.794611 9.108876 10.160919
v -0.000000 10.322545 10.160919
v -1.899940 8.563275 10.160919
v -1.899940 0.008400 10.160919
v 1.899940 0.007582 10.160919
v 1.175833 -0.512500 11.317154
v -1.175833 -0.511935 11.317154
v -1.518161 9.602299 10.160919
v -0.533228 10.242050 10.160919
v -1.082459 9.993715 10.160919
v 1.899940 8.563049 10.160919
v 0.533227 10.241986 10.160919
v 1.082458 9.993586 10.160919
v 1.794611 9.108661 10.160919
v 1.518161 9.602117 10.160919
v -1.794611 9.108876 9.797417
v -0.000000 10.322545 9.797417
v -1.899940 8.563275 9.797417
v -1.899940 0.008400 9.797417
v 1.899940 0.007582 9.797417
v -1.518161 9.602299 9.797417
v -0.533228 10.242050 9.797417
v -1.082459 9.993715 9.797417
v 1.899940 8.563049 9.797417
v 0.533227 10.241986 9.797417
v 1.082458 9.993586 9.797417
v 1.794611 9.108661 9.797417
v 1.518161 9.602117 9.797417
v 1.175833 -0.804151 10.878502
v -1.175833 -0.804151 10.878502
v 1.424539 -0.804151 10.878502
v -1.424539 -0.804151 10.878502
v 1.424539 -0.804151 10.160919
v -1.424539 -0.804151 10.160919
v -1.899940 -0.804151 10.160919
v 1.899940 -0.804151 10.160919
v 1.175833 -0.804151 11.317154
v -1.175833 -0.804151 11.317154
v -1.899940 -0.804151 9.797417
v 1.899940 -0.804151 9.797417
vn 0.0000 0.9418 0.3360
vn 0.0002 0.9418 0.3360
vn 0.0002 0.9739 0.2270
vn -1.0000 0.0000 0.0000
vn 1.0000 0.0000 0.0000
vn 0.0002 -0.9418 -0.3360
vn 0.0000 0.0000 -1.0000
vn 0.0002 0.9418 0.3361
vn -0.5858 -0.8104 0.0000
vn -0.8105 -0.5858 0.0000
vn 0.5858 -0.8105 0.0000
vn 0.3111 -0.9504 0.0000
vn 0.8104 -0.5858 0.0000
vn 0.9963 -0.0858 0.0000
vn 0.9495 -0.3136 0.0000
vn -0.9963 -0.0858 0.0000
vn 0.0002 1.0000 0.0000
vn -0.3112 -0.9503 0.0000
vn -0.0001 -1.0000 0.0000
vn -0.9495 -0.3136 0.0000
vn -0.0000 0.0000 1.0000
vn 0.7794 0.6265 0.0000
vn 0.9386 0.3450 0.0000
vn -0.7794 0.6266 0.0000
vn -0.5447 0.8386 0.0000
vn 0.9954 0.0957 0.0000
vn -0.9386 0.3450 0.0000
vn 0.5448 0.8386 0.0000
vn 0.2821 0.9594 0.0000
vn -0.2820 0.9594 0.0000
vn 0.0001 1.0000 0.0000
vn -0.9954 0.0957 0.0000
vn 0.0002 0.6505 0.7595
vn -0.7808 0.6247 0.0000
vn -0.5466 0.8374 0.0000
vn -0.9955 0.0952 0.0000
vn 0.7809 0.6247 0.0000
vn 0.9391 0.3435 0.0000
vn -0.9391 0.3436 0.0000
vn -0.2833 0.9590 0.0000
vn 0.2834 0.9590 0.0000
vn 0.9955 0.0952 0.0000
vn 0.5466 0.8374 0.0000
usemtl Material.001
s 1
f 3//1 7//2 10//3
f 1//4 2//4 5//4 4//4
f 7//5 3//5 6//5 9//5
f 4//6 5//6 9//6 6//6
f 7//7 9//7 11//7 10//7
f 8//7 17//7 5//7 2//7
f 9//7 14//7 13//7
f 9//7 12//7 15//7
f 9//7 13//7 11//7
f 9//7 15//7 16//7
f 14//7 9//7 16//7
f 20//7 5//7 17//7
f 21//7 5//7 20//7
f 19//7 5//7 21//7
f 18//7 5//7 19//7
f 12//7 5//7 18//7
f 5//7 12//7 9//7
f 2//8 1//1 8//3
f 1//1 3//1 10//3 8//3
f 19//9 21//10 34//10 32//9
f 16//11 15//12 28//12 29//11
f 14//13 16//11 29//11 27//13
f 11//14 13//15 26//15 24//14
f 10//5 11//14 24//14 23//5
f 17//16 8//4 22//4 30//16
f 13//15 14//13 27//13 26//15
f 8//3 10//3 23//17 22//17
f 18//18 19//9 32//9 31//18
f 12//19 18//18 31//18 25//19
f 20//20 17//16 30//16 33//20
f 21//10 20//20 33//20 34//10
f 15//12 12//19 25//19 28//12
f 31//21 32//21 45//21 44//21
f 30//21 22//21 35//21 43//21
f 28//21 25//21 38//21 41//21
f 23//21 24//21 37//21 36//21
f 33//21 30//21 43//21 46//21
f 29//21 28//21 41//21 42//21
f 24//21 26//21 39//21 37//21
f 34//21 33//21 46//21 47//21
f 27//21 29//21 42//21 40//21
f 25//21 31//21 44//21 38//21
f 26//21 27//21 40//21 39//21
f 32//21 34//21 47//21 45//21
f 47//22 46//23 59//23 60//22
f 40//24 42//25 55//25 53//24
f 43//26 35//5 48//5 56//26
f 39//27 40//24 53//24 52//27
f 45//28 47//22 60//22 58//28
f 44//29 45//28 58//28 57//29
f 41//30 38//31 51//31 54//30
f 36//4 37//32 50//32 49//4
f 46//23 43//26 56//26 59//23
f 42//25 41//30 54//30 55//25
f 38//31 44//29 57//29 51//31
f 37//32 39//27 52//27 50//32
f 51//21 57//21 72//21 62//21
f 55//21 54//21 69//21 70//21
f 59//21 56//21 71//21 74//21
f 49//21 50//21 63//21 64//21
f 22//33 23//33 67//33 66//33
f 50//21 52//21 61//21 63//21
f 60//21 59//21 74//21 75//21
f 53//21 55//21 70//21 68//21
f 56//21 48//21 65//21 71//21
f 52//21 53//21 68//21 61//21
f 58//21 60//21 75//21 73//21
f 57//21 58//21 73//21 72//21
f 54//21 51//21 62//21 69//21
f 68//34 70//35 83//35 81//34
f 64//4 63//36 78//36 79//4
f 75//37 74//38 87//38 88//37
f 63//36 61//39 76//39 78//36
f 70//35 69//40 82//40 83//35
f 62//31 72//41 85//41 77//31
f 74//38 71//42 84//42 87//38
f 69//40 62//31 77//31 82//40
f 71//42 65//5 80//5 84//42
f 72//41 73//43 86//43 85//41
f 73//43 75//37 88//37 86//43
f 61//39 68//34 81//34 76//39
f 23//21 36//21 92//21 90//21
f 48//5 35//5 91//5 93//5
f 67//4 23//4 90//4 98//4
f 80//5 65//5 96//5 100//5
f 35//21 22//21 89//21 91//21
f 22//5 66//5 97//5 89//5
f 64//4 79//4 99//4 95//4
f 49//21 64//21 95//21 94//21
f 65//21 48//21 93//21 96//21
f 36//4 49//4 94//4 92//4
f 97//21 66//21 67//21 98//21
